<svg width="1280" height="832" viewBox="0 0 1280 832" fill="none" xmlns="http://www.w3.org/2000/svg">
<g clip-path="url(#clip0_1_1119)">
<rect width="1280" height="832" fill="#D9D9D9"/>
<path d="M962.865 418.298C918.749 386.844 906.864 347.642 901.856 293.693C894.283 212.13 917.826 125.922 997.531 107.032C1039.56 97.0715 1077.32 90.7732 1103.98 124.759C1127.18 154.35 1090.88 188.723 1110.16 221.01C1133.56 260.198 1204.27 240.871 1226.65 283.238C1256.36 339.477 1195.86 375.984 1142.31 410.291C1083.24 448.129 1019.98 459.021 962.865 418.298Z" fill="#F6F88D"/>
<path d="M399.484 414.065C429.214 459.36 426.095 500.205 411.227 552.306C388.748 631.075 335.583 702.905 254.447 691.648C211.665 685.713 161.909 684.18 149.371 642.848C138.454 606.86 196.434 586.892 190.153 549.814C182.151 502.573 147.772 503.859 101.772 457.813C56.8208 412.818 159.488 358.01 221.832 345.426C290.592 331.547 360.993 355.422 399.484 414.065Z" fill="#F6F88D"/>
<path d="M727.807 630.261C749.417 593.892 768.806 592.292 810.46 584.891C873.433 573.703 978.8 597.053 998.674 657.847C1009.15 689.902 998.784 741.077 966.405 741.846C937.049 742.544 907.317 730.439 883.446 747.539C853.033 769.326 877.734 838.47 840.345 837.169C793.655 835.545 769.604 798.206 739.432 758.761C706.154 715.258 699.88 677.261 727.807 630.261Z" fill="#F6F88D"/>
</g>
<defs>
<clipPath id="clip0_1_1119">
<rect width="1280" height="832" fill="white"/>
</clipPath>
</defs>
</svg>
