<svg width="1200" height="674" viewBox="0 0 1200 674" fill="none" xmlns="http://www.w3.org/2000/svg">
<g clip-path="url(#clip0_1_1123)">
<rect width="1200" height="674" fill="#D9D9D9"/>
<path d="M916.865 361.298C872.749 329.844 860.864 290.642 855.856 236.693C848.283 155.13 871.826 68.9224 951.531 50.0321C993.559 40.0715 1031.32 33.7732 1057.98 67.759C1081.18 97.35 1044.88 131.723 1064.16 164.01C1087.56 203.198 1158.27 183.871 1180.65 226.238C1210.36 282.477 1149.86 318.984 1096.31 353.291C1037.24 391.129 973.981 402.021 916.865 361.298Z" fill="#F6F88D"/>
<path d="M362.484 275.065C392.214 320.36 389.095 361.205 374.227 413.306C351.748 492.075 298.583 563.905 217.447 552.648C174.665 546.713 124.909 545.18 112.371 503.848C101.454 467.86 159.434 447.892 153.153 410.814C145.151 363.573 110.772 364.859 64.7719 318.813C19.8208 273.818 122.488 219.01 184.832 206.426C253.592 192.547 323.993 216.422 362.484 275.065Z" fill="#F6F88D"/>
<path d="M617.807 451.261C639.417 414.892 658.806 413.292 700.46 405.891C763.433 394.703 868.8 418.053 888.674 478.847C899.154 510.902 888.784 562.077 856.405 562.846C827.049 563.544 797.317 551.439 773.446 568.539C743.033 590.326 767.734 659.47 730.345 658.169C683.655 656.545 659.604 619.206 629.432 579.761C596.154 536.258 589.88 498.261 617.807 451.261Z" fill="#F6F88D"/>
</g>
<defs>
<clipPath id="clip0_1_1123">
<rect width="1200" height="674" fill="white"/>
</clipPath>
</defs>
</svg>
