<svg width="1280" height="720" viewBox="0 0 1280 720" fill="none" xmlns="http://www.w3.org/2000/svg">
<g clip-path="url(#clip0_1_1127)">
<rect width="1280" height="720" fill="#D9D9D9"/>
<path d="M962.865 352.298C918.749 320.844 906.864 281.642 901.856 227.693C894.283 146.13 917.826 59.9224 997.531 41.0321C1039.56 31.0715 1077.32 24.7732 1103.98 58.759C1127.18 88.35 1090.88 122.723 1110.16 155.01C1133.56 194.198 1204.27 174.871 1226.65 217.238C1256.36 273.477 1195.86 309.984 1142.31 344.291C1083.24 382.129 1019.98 393.021 962.865 352.298Z" fill="#F6F88D"/>
<path d="M399.484 379.065C429.214 424.36 426.095 465.205 411.227 517.306C388.748 596.075 335.584 667.905 254.447 656.648C211.665 650.713 161.909 649.18 149.371 607.848C138.454 571.86 196.434 551.892 190.153 514.814C182.151 467.573 147.772 468.859 101.772 422.813C56.8209 377.818 159.488 323.01 221.832 310.426C290.592 296.547 360.993 320.422 399.484 379.065Z" fill="#F6F88D"/>
<path d="M727.807 486.261C749.417 449.892 768.806 448.292 810.46 440.891C873.433 429.703 978.8 453.053 998.674 513.847C1009.15 545.902 998.784 597.077 966.405 597.846C937.049 598.544 907.317 586.439 883.446 603.539C853.033 625.326 877.734 694.47 840.345 693.169C793.655 691.545 769.604 654.206 739.432 614.761C706.154 571.258 699.88 533.261 727.807 486.261Z" fill="#F6F88D"/>
</g>
<defs>
<clipPath id="clip0_1_1127">
<rect width="1280" height="720" fill="white"/>
</clipPath>
</defs>
</svg>
